# Blender v2.82 (sub 7) OBJ File: 'cube.blend'
# www.blender.org
mtllib box.mtl
o Cube
v 2.000000 2.000000 -2.000000
v 2.000000 0.000000 -2.000000
v 2.000000 2.000000 0.000000
v 2.000000 0.000000 0.000000
v 0.000000 2.000000 -2.000000
v 0.000000 0.000000 -2.000000
v 0.000000 2.000000 0.000000
v 0.000000 0.000000 0.000000
vt 0.000200 0.000200
vt 1.000000 0.000000
vt 1.000000 1.000000
vt 0.000000 1.000000
vt 1.000000 1.000000
vt 0.000000 0.000000
vt 0.999800 0.000200
vt 1.000000 0.000000
vt 0.000000 1.000000
vt 0.000000 0.000000
vt 1.000000 0.000000
vt 0.000000 1.000000
vt 1.000000 1.000000
vt 0.000200 0.999800
vt 0.000000 0.000000
vt 1.000000 0.000000
vt 1.000000 0.000000
vt 1.000000 1.000000
vt 0.000000 1.000000
vt 0.000000 0.000000
vn 0.0000 1.0000 0.0000
vn 0.0000 0.0000 1.0000
vn -1.0000 0.0000 0.0000
vn 0.0000 -1.0000 0.0000
vn 1.0000 0.0000 0.0000
vn 0.0000 0.0000 -1.0000
usemtl Material
s off
f 1/1/1 5/2/1 7/3/1 3/4/1
f 4/5/2 3/4/2 7/6/2 8/7/2
f 8/8/3 7/3/3 5/9/3 6/10/3
f 6/10/4 2/11/4 4/5/4 8/12/4
f 2/13/5 1/14/5 3/15/5 4/16/5
f 6/17/6 5/18/6 1/19/6 2/20/6
